<svg width="14" height="18" viewBox="0 0 14 18" fill="none" xmlns="http://www.w3.org/2000/svg">
<path d="M7.41177 6.29499C7.73278 6.27435 7.99817 6.51373 7.93598 6.82893C7.86556 7.18496 7.6706 7.59249 7.53295 7.92926L6.77017 9.78338C6.73184 9.87602 6.57563 10.1972 6.56812 10.2584C6.61884 10.3921 6.81601 10.3847 6.88966 10.3018C7.0048 10.1724 7.08148 9.96883 7.16807 9.81406C7.579 9.07972 7.93413 8.31364 8.30103 7.55673C8.42255 7.30563 8.5449 6.99803 8.87382 6.96808C8.98475 6.95798 9.12189 7.02831 9.20273 7.10121C9.31668 7.20541 9.37147 7.35925 9.34929 7.51202C9.32895 7.66077 9.00071 8.24804 8.9071 8.4228C8.59936 8.99666 8.30792 9.58477 7.99615 10.1567C7.93195 10.2745 7.62858 10.7436 7.63228 10.8263C7.66186 10.8669 7.69446 10.8905 7.74488 10.8982C7.83985 10.9128 7.91766 10.8432 7.97548 10.7769C8.11598 10.6158 8.20826 10.397 8.30994 10.2092C8.48557 9.88517 9.0271 8.86758 9.27568 8.69981C9.38492 8.62606 9.51686 8.59294 9.64694 8.6208C9.76039 8.64477 9.85804 8.71595 9.91569 8.81647C9.98057 8.93094 9.98493 9.08021 9.93502 9.20556C9.77854 9.59866 9.53417 9.94821 9.34274 10.3238C9.0276 10.9422 8.70121 11.5552 8.40591 12.1838C8.07935 12.8787 7.67631 13.5774 7.47715 14.3218C7.36269 14.7499 7.32185 15.3412 7.56791 15.7344C7.70135 15.9486 7.91548 16.0998 8.16204 16.1539C8.74289 16.2855 9.45601 15.9413 9.85838 15.5309C10.0564 15.3289 10.2905 14.9208 10.6145 15.0193C10.7023 15.0453 10.7755 15.1062 10.8174 15.1877C10.9488 15.4405 10.7634 15.7348 10.6201 15.9386C10.2544 16.4587 9.73266 16.8719 9.15987 17.1429C8.20708 17.601 7.07228 17.694 6.03653 17.5634C4.92313 17.4076 3.80273 16.8546 3.16181 15.9067C2.71926 15.2623 2.60314 14.4875 2.3804 13.7567C2.1356 12.9535 1.69047 12.2095 1.07901 11.6322C0.892045 11.4557 0.67651 11.297 0.516339 11.0977C0.329561 10.8654 0.404387 10.5182 0.660628 10.3733C0.937037 10.2112 1.28468 10.2313 1.58685 10.3004C2.50331 10.5557 3.08838 11.3402 3.47262 12.1639C3.574 12.3268 3.63513 12.6498 3.74787 12.7877C4.14946 13.2788 4.39128 12.7438 4.45416 12.3992C4.55725 11.8342 4.57584 11.3915 4.55882 10.8266C4.54705 10.4363 4.51386 10.0774 4.57645 9.69567C4.69717 9.11587 4.89897 8.52868 5.06049 7.95655C5.14404 7.7089 5.18721 7.44182 5.27945 7.19855C5.3695 6.96105 5.59284 6.76295 5.8573 6.82505C5.9814 6.8553 6.08755 6.93536 6.15077 7.04637C6.30353 7.31525 6.01829 7.91852 5.93384 8.21679C5.77871 8.76467 5.58243 9.30692 5.43675 9.85876C5.48611 9.97176 5.53731 10.0973 5.67531 10.0871C5.83002 9.99179 6.02229 9.2745 6.09871 9.05728L6.70975 7.36325C6.85236 6.96189 6.94539 6.39838 7.41177 6.29499Z" fill="currentColor"/>
<path d="M6.49647 0.0137617C7.25714 -0.0362058 8.02068 0.0503005 8.75078 0.269163C10.527 0.815443 12.0087 2.05334 12.8623 3.70401C14.4529 6.72428 13.6665 10.3553 10.8325 12.3073C10.5424 12.5071 10.0249 13.1021 9.63971 12.9011C9.30912 12.7287 9.43903 12.2813 9.68156 12.071C11.7761 10.2551 12.7435 7.56247 11.6503 4.92439C11.2707 4.05231 10.673 3.29264 9.91467 2.71858C8.7723 1.8595 7.45076 1.5008 6.03093 1.70319C3.64613 2.04577 1.73182 3.84623 1.24384 6.20556C1.15201 6.66846 1.18359 7.01795 1.14823 7.44798C1.0968 8.07342 0.0546758 8.14411 0.0102211 7.2908C-0.0833776 5.49407 0.465778 3.77116 1.66133 2.40049C2.89924 1.00365 4.63479 0.146941 6.49647 0.0137617Z" fill="currentColor"/>
<path d="M6.63611 3.34023C7.90556 3.23771 9.23652 4.01855 9.85569 5.11217C10.0775 5.50404 10.2431 6.19683 10.2702 6.65025C10.2789 6.79328 10.2332 6.97018 10.194 7.10557C9.83199 6.11372 9.67686 5.35212 8.68608 4.73356C7.84338 4.20743 6.90371 4.075 5.94086 4.30239C4.54268 4.66555 3.43676 5.78144 3.22924 7.21781C3.19497 7.45506 3.16816 7.60076 3.01288 7.79021C2.92245 7.62686 2.89515 7.48552 2.8811 7.3001C2.80881 6.34631 3.18181 5.41574 3.80729 4.70443C4.53159 3.89201 5.54939 3.40117 6.63611 3.34023Z" fill="currentColor"/>
</svg>
